<svg xmlns="http://www.w3.org/2000/svg" viewBox="0 0 45 45"><circle cx="22.5" cy="22.5" r="21.5" fill="#000" fill-opacity="0.75"/><g fill="none" fill-rule="evenodd" stroke="#000" stroke-linecap="round" stroke-linejoin="round" stroke-width="1.5"><path stroke-linejoin="miter" d="M22.5 11.63V6M20 8h5"/><path fill="#fff" stroke-linecap="butt" stroke-linejoin="miter" d="M22.5 25s4.5-7.5 3-10.5c0 0-1-2.5-3-2.5s-3 2.5-3 2.5c-1.5 3 3 10.5 3 10.5"/><path fill="#fff" d="M11.5 37c5.5 3.5 15.5 3.5 21 0v-7s9-4.5 6-10.5c-4-6.5-13.5-3.5-16 4V27v-3.5c-3.5-7.5-13-10.5-16-4-3 6 5 10 5 10z"/><path d="M11.5 30c5.5-3 15.5-3 21 0m-21 3.5c5.5-3 15.5-3 21 0m-21 3.5c5.5-3 15.5-3 21 0"/></g><g><circle cx="18" cy="24" r="0.85" fill="#000"/><circle cx="27" cy="24" r="0.85" fill="#000"/><path d="M19.5 28 Q22.5 26.3 25.5 28" stroke="#000" stroke-width="0.8" fill="none" stroke-linecap="round"/><path d="M17 25 Q15.9 26.6 16.5 27.7 Q17.2 28.5 17.6 27.6 Q18.1 26.6 17 25 Z" fill="#5dadec" stroke="#1976d2" stroke-width="0.25"/></g></svg>
